<svg xmlns="http://www.w3.org/2000/svg" width="11.155" height="10.681" viewBox="0 0 11.155 10.681">
  <path id="数据" d="M234.825,199.74c-.83.849-2.915,1.454-5.366,1.454-.06,0-.117,0-.178,0s-.118,0-.178,0c-2.451,0-4.535-.6-5.365-1.453l-.034.033v1.557c.808.866,2.916,1.486,5.4,1.486.06,0,.117,0,.179,0s.117,0,.176,0c2.484,0,4.593-.62,5.4-1.486v-1.557C234.849,199.762,234.835,199.751,234.825,199.74Zm-5.366-4.53c-.06,0-.117,0-.176,0s-.119,0-.179,0c-2.484,0-4.592.62-5.4,1.487v1.556l.034.033c.831.849,2.915,1.454,5.365,1.454.06,0,.117,0,.179,0s.117,0,.176,0c2.452,0,4.536-.6,5.366-1.454.011-.011.024-.021.034-.032V196.7C234.052,195.83,231.942,195.21,229.459,195.21Zm5.366,7.605c-.83.849-2.915,1.454-5.366,1.454-.06,0-.117,0-.178,0s-.118,0-.178,0c-2.451,0-4.535-.6-5.365-1.453l-.034.032v1.556c.808.867,2.916,1.487,5.4,1.487.06,0,.117,0,.179,0s.117,0,.176,0c2.484,0,4.593-.62,5.4-1.487v-1.556C234.849,202.838,234.835,202.827,234.825,202.816Z" transform="translate(-223.704 -195.21)"/>
</svg>
