<svg xmlns="http://www.w3.org/2000/svg" width="9.676" height="11.861" viewBox="0 0 9.676 11.861">
  <g id="Establisher" transform="translate(-162.137 -2.719)">
    <path id="路径_26" data-name="路径 26" d="M169.83,4.209a.491.491,0,0,1,.137.47.561.561,0,0,1-.494.424v.1c0,2.123,0,1.947,0,4.07a4.1,4.1,0,0,1-.1.9,2.4,2.4,0,0,1-.232.615c-.1.179-.209.348-.311.524a.088.088,0,0,0-.005.074c.141.243.277.49.432.724a2.629,2.629,0,0,0,.347.415,1.076,1.076,0,0,0,.446.3.546.546,0,0,0,.505-.066.724.724,0,0,1,.742-.106.785.785,0,0,1,.449,1.047.77.77,0,0,1-.238.313,1.969,1.969,0,0,1-.928.4,2.1,2.1,0,0,1-1.253-.182,2.773,2.773,0,0,1-.915-.68c-.137-.148-.271-.3-.393-.458-.1-.135-.189-.284-.281-.428l-.2-.315c-.27.068-.532.151-.8.2a3.027,3.027,0,0,1-1.479-.138,3.089,3.089,0,0,1-.59-.27,3.155,3.155,0,0,1-.539-.415,3.712,3.712,0,0,1-.427-.467,2.958,2.958,0,0,1-.252-.425,2.558,2.558,0,0,1-.179-.39,3.4,3.4,0,0,1-.181-1.08V8.756c-.11.068-.205.13-.3.188-.162.1-.323.193-.491.279a.151.151,0,0,1-.137-.032.144.144,0,0,1-.006-.131c.111-.225.232-.445.347-.669s.235-.473.355-.708c.112-.219.229-.435.341-.654.1-.2.2-.4.3-.6.027-.054.065-.106.126-.092a.2.2,0,0,1,.108.094c.136.245.266.5.4.744.078.149.154.3.231.45q.211.418.421.836c.1.195.194.39.291.584.025.05.047.1,0,.15a.115.115,0,0,1-.16.016l-.33-.192-.447-.262v.1c.009.287,0,.576.032.861a1.789,1.789,0,0,0,.305.814,2.428,2.428,0,0,0,.381.456,1.657,1.657,0,0,0,.5.332,2.518,2.518,0,0,0,.4.151,2.11,2.11,0,0,0,.872.025l.44-.1c-.05-.069-.09-.116-.119-.166a1.382,1.382,0,0,0-.328-.35.645.645,0,0,0-.378-.134,1.81,1.81,0,0,1-.561-.149,1.159,1.159,0,0,1-.38-.279,1.322,1.322,0,0,1-.356-.767c-.006-.048,0-.078.052-.1a6.174,6.174,0,0,1,.681-.236,2.515,2.515,0,0,1,.812-.031,1.943,1.943,0,0,1,.721.225,3.029,3.029,0,0,1,.355.22,3.309,3.309,0,0,1,.347.287c.09.087.164.188.245.283.016.019.032.04.052.065a1.793,1.793,0,0,0,.205-.78c.006-.637,0-1.275,0-1.912,0-1.555,0-.81,0-2.365V5.1a.556.556,0,0,1-.483-.326.55.55,0,0,1,.087-.57c-.033-.027-.066-.056-.1-.083a.781.781,0,0,1-.183-1.015.773.773,0,0,1,.675-.385c.341-.011.683,0,1.025,0a.788.788,0,0,1,.609,1.294.951.951,0,0,1-.1.1C169.916,4.152,169.874,4.178,169.83,4.209Z" transform="translate(0 0)"/>
    <path id="路径_27" data-name="路径 27" d="M205.544,813.58c.031.035.048.052.063.072a3.747,3.747,0,0,0,.784.8c.144.107.3.2.45.3a.069.069,0,0,1,.024.055,2.489,2.489,0,0,0,.056.779.716.716,0,0,1-.209.662.774.774,0,0,1-.911.161.849.849,0,0,1-.46-.65,3.745,3.745,0,0,1-.042-1.239,3.844,3.844,0,0,1,.208-.8C205.521,813.679,205.528,813.639,205.544,813.58Z" transform="translate(-42.534 -801.91)"/>
  </g>
</svg>
