<svg xmlns="http://www.w3.org/2000/svg" width="11.155" height="8.693" viewBox="0 0 11.155 8.693">
  <g id="信息" transform="translate(0 0)">
    <path id="路径_30" data-name="路径 30" d="M350.58,165.928h-6.314a.8.8,0,0,1,0-1.592h6.314a.8.8,0,0,1,0,1.592Z" transform="translate(-340.138 -164.336)"/>
    <path id="路径_31" data-name="路径 31" d="M73.653,165.928H72.492a.8.8,0,0,1,0-1.592h1.161a.8.8,0,0,1,0,1.592Z" transform="translate(-71.778 -164.336)"/>
    <path id="路径_32" data-name="路径 32" d="M350.58,448.4h-6.314a.8.8,0,0,1,0-1.6h6.314a.8.8,0,0,1,0,1.6Z" transform="translate(-340.138 -443.258)"/>
    <path id="路径_33" data-name="路径 33" d="M73.653,448.4H72.492a.8.8,0,0,1,0-1.6h1.161a.8.8,0,0,1,0,1.6Z" transform="translate(-71.779 -443.258)"/>
    <path id="路径_34" data-name="路径 34" d="M350.58,730.87h-6.314a.8.8,0,0,1,0-1.6h6.314a.8.8,0,0,1,0,1.6Z" transform="translate(-340.138 -722.177)"/>
    <path id="路径_35" data-name="路径 35" d="M73.653,730.87H72.492a.8.8,0,0,1,0-1.6h1.161a.8.8,0,0,1,0,1.6Z" transform="translate(-71.779 -722.177)"/>
  </g>
</svg>
