<svg id="Initial" xmlns="http://www.w3.org/2000/svg" width="12.356" height="12.356" viewBox="0 0 12.356 12.356">
  <path id="路径_28" data-name="路径 28" d="M0,0H12.356V12.356H0Z" fill="rgba(216,216,216,0)"/>
  <path id="路径_29" data-name="路径 29" d="M73.572,69.06v.821a4.533,4.533,0,1,0,5.25,5.218h.821a5.348,5.348,0,1,1-6.071-6.039Zm0,2.333v.849A2.243,2.243,0,1,0,76.463,75.1h.848a3.056,3.056,0,1,1-3.738-3.705Zm6.119,2.946H74.726a.386.386,0,0,1-.386-.386V69a5.346,5.346,0,0,1,5.352,5.34Z" transform="translate(-68.167 -68.167)"/>
</svg>
