<svg xmlns="http://www.w3.org/2000/svg" width="12.137" height="13" viewBox="0 0 12.137 13">
  <path id="Peak" d="M80.313,53.25h0a4.341,4.341,0,0,1,.038-.562H78.912a.4.4,0,1,0,0,.791h1.406c0-.076,0-.152,0-.229Zm-.029,3.479h0a.394.394,0,0,0,0,.562.415.415,0,0,0,.572,0l.739-.724a6.382,6.382,0,0,1-.505-.624l-.805.786Zm1.025-6.29h0a4.248,4.248,0,0,1,.558-.577l-1.005-.986a.406.406,0,0,0-.572,0,.394.394,0,0,0,0,.562l1.02,1Zm4.3,9.25H83.548a.379.379,0,1,0,0,.758h2.059a.379.379,0,1,0,0-.758ZM84.578,49.166h.01c.133,0,.262.01.391.019V47.841a.405.405,0,0,0-.81,0v1.344a3.575,3.575,0,0,1,.391-.019Zm3.269,1.272h0l1.02-1a.394.394,0,0,0,0-.562.406.406,0,0,0-.572,0l-1.005.986a4.91,4.91,0,0,1,.558.577Zm.21,5.5a6.518,6.518,0,0,1-.505.624l.739.724a.415.415,0,0,0,.572,0,.394.394,0,0,0,0-.562l-.805-.786ZM85.607,58.73H83.548a.379.379,0,1,0,0,.758h2.059a.379.379,0,1,0,0-.758Zm4.632-6.042H88.8a4.4,4.4,0,0,1,.038.562c0,.076,0,.152,0,.229h1.406a.4.4,0,1,0,0-.791Zm-1.968.562h0a3.56,3.56,0,0,0-.748-2.187,3.672,3.672,0,0,0-1.62-1.2l0-.019-.276-.081a3.875,3.875,0,0,0-.662-.129l-.033,0h0c-.11-.01-.224-.019-.348-.019h-.019c-.119,0-.233.01-.348.019h0l-.033,0a3.875,3.875,0,0,0-.662.129l-.267.076,0,.019a3.746,3.746,0,0,0-1.63,1.2,3.589,3.589,0,0,0-.748,2.187,3.872,3.872,0,0,0,.267,1.472,4.017,4.017,0,0,0,.91,1.315c.148.152.281.286.367.4a.693.693,0,0,1,.148.267,5.12,5.12,0,0,1,.071.867V57.6a.885.885,0,0,0,.9.877h.7V55.046l-1-1a.305.305,0,0,1,0-.438.314.314,0,0,1,.438,0l.872.867.872-.867a.314.314,0,0,1,.438,0,.305.305,0,0,1,0,.438l-1,1v3.426h.753a.888.888,0,0,0,.9-.877v-.029a5.087,5.087,0,0,1,.071-.867.471.471,0,0,1,.071-.167,2.81,2.81,0,0,1,.372-.424,4.834,4.834,0,0,0,.815-1.039,3.675,3.675,0,0,0,.434-1.82Zm-.214,2.688Zm0,0" transform="translate(-78.507 -47.445)"/>
</svg>
