<svg xmlns="http://www.w3.org/2000/svg" width="12.019" height="11.686" viewBox="0 0 12.019 11.686">
  <g id="Release" transform="translate(0.1 -13.738)">
    <path id="路径_49" data-name="路径 49" d="M268.348,432.791h.686v1.893h-.686Z" transform="translate(-265.292 -414.166)" stroke="#000" stroke-width="0.2"/>
    <path id="路径_50" data-name="路径 50" d="M9.081,17a2.689,2.689,0,0,0-.984.189V14.447H5.089v-.593L0,14.629V24.3l5.089,1v-.415H8.1V22.143A2.672,2.672,0,1,0,9.081,17ZM4.4,24.469.686,23.738V15.219L4.4,14.653ZM7.411,24.2H5.089V15.147H7.411v2.445a2.665,2.665,0,0,0,0,4.163Zm1.67-2.541a1.989,1.989,0,1,1,1.41-.579,1.986,1.986,0,0,1-1.41.579Z" transform="translate(0 0)" stroke="#000" stroke-width="0.2"/>
    <path id="路径_51" data-name="路径 51" d="M703.113,410.5l-.487.487.487.473h-1.372v.686h1.372l-.477.473.477.487,1.3-1.3Zm.305,1.276.027.027-.027.027Z" transform="translate(-693.75 -392.133)" stroke="#000" stroke-width="0.2"/>
  </g>
</svg>
