<svg xmlns="http://www.w3.org/2000/svg" width="11.259" height="13.474" viewBox="0 0 11.259 13.474">
  <g id="大脑2" transform="translate(0)">
    <path id="路径_46" data-name="路径 46" d="M657.334,415.811m-.926,0a.926.926,0,1,0,.926-.926A.926.926,0,0,0,656.408,415.811Z" transform="translate(-648.953 -409.607)"/>
    <path id="路径_47" data-name="路径 47" d="M351.154,190.716m-1.6,0a1.6,1.6,0,1,0,1.6-1.6A1.6,1.6,0,0,0,349.556,190.716Z" transform="translate(-346.569 -187.127)"/>
    <path id="路径_48" data-name="路径 48" d="M154.331,54.123c-.81-.88-1.852-1.713-4.468-1.736a5.162,5.162,0,0,0-3.8,1.5,3.9,3.9,0,0,0-1.111,3.357c.023.347.532.741.185,1.412a8.638,8.638,0,0,0-.718,1.528s-.023.394.6.417c0,0,.162.023.116.37v.486s.023.139.3.232c0,0,.046.046-.023.139,0,0-.139.162.093.509a.584.584,0,0,1,.139.6s-.116.625.139.764c0,0,.278.324,1.389.185.394-.046,1.111-.232,1.551.3a9.029,9.029,0,0,1,.833,1.667,13.779,13.779,0,0,1,4.353-2.13,4.134,4.134,0,0,1,.37-3.449,7.243,7.243,0,0,0,1.366-2.732A4.229,4.229,0,0,0,154.331,54.123Zm-3.774,3.75a.5.5,0,0,1-.185.116c-.069.046-.162.093-.232.139v.509l-.208.069c-.046.023-.093.023-.116.046-.093-.139-.208-.255-.3-.394a1.562,1.562,0,0,1-.324.046c-.069.139-.139.3-.208.463a.023.023,0,0,1-.023.023c-.116,0-.232-.023-.347-.023-.046-.162-.093-.347-.139-.509,0-.023-.023-.023-.046-.023-.116-.023-.208-.069-.3-.093-.139.116-.278.232-.394.347a2.112,2.112,0,0,1-.3-.185c.023-.185.069-.347.093-.532a1.326,1.326,0,0,1-.255-.255.319.319,0,0,1-.07-.093c-.162.046-.324.069-.509.116h-.023c-.069-.093-.116-.208-.185-.3l.347-.417c-.046-.093-.069-.208-.116-.324a3.928,3.928,0,0,0-.509-.093c-.023-.116-.023-.232-.046-.347.162-.069.3-.162.463-.232a1.869,1.869,0,0,1,.023-.37c-.139-.093-.255-.185-.394-.278,0,0-.046-.023-.023-.046a1.305,1.305,0,0,1,.093-.278c0-.023,0-.023.023-.046a3.419,3.419,0,0,0,.486-.023c.023,0,.046,0,.046-.023.046-.093.093-.162.139-.255a.176.176,0,0,0,.046-.093c-.069-.162-.162-.3-.232-.463.069-.093.162-.162.232-.255l.486.208a.5.5,0,0,1,.185-.116c.069-.046.162-.093.232-.139v-.509l.208-.069c.046-.023.093-.023.116-.046a1.55,1.55,0,0,0,.255.417c.116,0,.208-.023.324-.023V53.5c.069-.162.139-.3.208-.463.116,0,.232.023.347.023a3.7,3.7,0,0,1,.116.486,1.7,1.7,0,0,1,.324.093c.023,0,.046.023.069,0a2.212,2.212,0,0,0,.37-.278c.093.069.208.116.3.185-.023.162-.069.324-.093.486,0,.023.046.046.069.069a1.5,1.5,0,0,0,.208.185l.486-.139c.023.046.046.069.069.116a.981.981,0,0,1,.116.162.032.032,0,0,1,0,.046c-.093.139-.208.278-.3.417.023.069.069.139.093.208l.069.208a3.926,3.926,0,0,0,.509.093c.023.116.023.232.046.347-.162.069-.3.162-.463.232a1.992,1.992,0,0,1-.023.37c.139.093.278.208.417.3-.023.093-.069.185-.093.278a.081.081,0,0,1-.023.046,4.1,4.1,0,0,0-.533.023,2.527,2.527,0,0,1-.139.255.175.175,0,0,0-.046.093c.069.162.162.3.232.463-.069.093-.162.162-.232.255C150.858,58.012,150.719,57.942,150.557,57.873Zm3.959,1.134a.429.429,0,0,0-.046.162v.023h-.324a.581.581,0,0,1-.093.162.081.081,0,0,1-.023.046l.139.278a1.008,1.008,0,0,0-.139.162l-.278-.139c-.046.023-.069.046-.116.069a.484.484,0,0,0-.139.093v.324c-.046.023-.093.023-.139.046-.023,0-.046.023-.069.023-.069-.069-.116-.162-.185-.232a.575.575,0,0,1-.185.023c-.046.093-.069.185-.116.278v.023c-.069,0-.139-.023-.208-.023-.023-.093-.046-.208-.069-.3,0-.023-.023,0-.023-.023-.069-.023-.116-.046-.185-.069-.093.069-.162.139-.255.208-.069-.046-.116-.069-.185-.116.023-.116.046-.208.069-.324-.046-.046-.116-.093-.162-.139-.069,0-.093,0-.093-.023-.093.023-.208.046-.3.069h-.023c-.046-.069-.069-.116-.116-.185.069-.093.139-.162.208-.255-.023-.069-.046-.116-.069-.185-.093-.023-.208-.046-.3-.069,0-.069-.023-.139-.023-.208l.278-.139a.788.788,0,0,1,.023-.232c-.069-.046-.162-.116-.232-.162l-.023-.023c.023-.046.023-.116.046-.162v-.023h.324a.484.484,0,0,1,.093-.139.081.081,0,0,1,.023-.046l-.139-.278a1.007,1.007,0,0,0,.139-.162l.278.139c.046-.023.069-.046.116-.069a.484.484,0,0,0,.139-.093v-.324c.046-.023.093-.023.139-.046.023,0,.046-.023.069-.023.069.069.116.162.185.232.069,0,.116-.023.185-.023.046-.093.069-.185.116-.278a.641.641,0,0,1,.208.023c.023.093.046.208.069.3.069.023.139.023.185.069.023,0,.023.023.046,0a.906.906,0,0,1,.232-.185c.069.046.116.069.185.116a1.356,1.356,0,0,0-.046.3c0,.023.023.023.046.046.046.046.093.069.116.116.093-.023.208-.069.3-.093.023.023.023.046.046.069s.046.069.069.093c0,0,.023.023,0,.023-.069.093-.116.162-.185.255a.329.329,0,0,1,.046.139c.023.046.023.093.046.139.093.023.208.046.3.069a.64.64,0,0,1,.023.208l-.278.139a.787.787,0,0,1-.023.232A.276.276,0,0,1,154.516,59.007Z" transform="translate(-144.422 -52.386)"/>
  </g>
</svg>
